# xmcd
#
# Track frame offsets:
#	150
#	18647
#	45422
#	68054
#	91070
#	112462
#	135998
#
# Disc length: 2174 seconds
# Revision: 0
# Processed by: cddbd v1.5.2PL0 Copyright (c) Steve Scherf et al.
# Submitted via: dBpowerAMP V12.0
#
DISCID=57087c07
DTITLE=Bích Hồng - Mùa Xuân Đầu Tiên
DYEAR=1900
DGENRE=
TTITLE0=Mùa Xuân Trên Quê Hương
TTITLE1=Huyền Thoại Mẹ
TTITLE2=Mùa Xuân Đầu Tiên
TTITLE3=Giếng Quê
TTITLE4=Quê Hương
TTITLE5=Nhớ Quê
TTITLE6=Về Quê
EXTD=
EXTT0=
EXTT1=
EXTT2=
EXTT3=
EXTT4=
EXTT5=
EXTT6=
PLAYORDER=
